<svg width="96" height="96" viewBox="0 0 96 96" fill="none" xmlns="http://www.w3.org/2000/svg">
<rect width="96" height="96" rx="48" fill="#DBEAFE"/>
<path d="M24.2622 60.625C23.8762 60.6252 23.4983 60.5136 23.1743 60.3038C22.8502 60.094 22.5938 59.7948 22.436 59.4425C20.5266 55.1781 19.7147 50.5037 20.0743 45.8451C20.4338 41.1866 21.9535 36.6922 24.4947 32.7713C27.0359 28.8504 30.5179 25.6278 34.6234 23.3971C38.7289 21.1664 43.3274 19.9986 47.9998 20C48.5302 20 49.0389 20.2107 49.414 20.5858C49.789 20.9609 49.9998 21.4696 49.9998 22V48C49.9998 48.3862 49.8881 48.7642 49.678 49.0882C49.468 49.4123 49.1686 49.6686 48.816 49.8263L25.0785 60.445C24.8222 60.5621 24.544 60.6234 24.2622 60.625Z" fill="#2563EB"/>
<path d="M55.1987 24.5225C55.0537 24.4931 54.9039 24.4962 54.7603 24.5317C54.6166 24.5672 54.4826 24.6341 54.368 24.7276C54.2533 24.8211 54.1608 24.9389 54.0972 25.0724C54.0335 25.206 54.0003 25.3521 53.9999 25.5V48C53.9989 49.158 53.6634 50.2911 53.0336 51.2628C52.4037 52.2346 51.5066 53.0037 50.4499 53.4775L28.8912 63.125C28.7576 63.1847 28.6387 63.2729 28.5429 63.3836C28.4471 63.4942 28.3767 63.6245 28.3368 63.7653C28.2968 63.9061 28.2883 64.0539 28.3117 64.1983C28.3352 64.3428 28.39 64.4803 28.4724 64.6013C30.1223 67.0278 32.1703 69.1582 34.5299 70.9025C39.0006 74.2282 44.428 76.0166 49.9999 76C64.3362 76 75.9999 64.3363 75.9999 50C75.9999 37.4438 67.0524 26.9375 55.1987 24.5225Z" fill="#2563EB"/>
</svg>
