<svg width="96" height="96" viewBox="0 0 96 96" fill="none" xmlns="http://www.w3.org/2000/svg">
<rect width="96" height="96" rx="48" fill="#CFFAFE"/>
<path d="M70 50C68.7597 50.0018 67.5504 50.3871 66.5377 51.1033C65.5251 51.8194 64.7587 52.8312 64.3438 54H59.4412L55.8975 43.3675C55.7624 42.9624 55.5011 42.6112 55.1519 42.3652C54.8028 42.1193 54.3841 41.9916 53.9571 42.0009C53.5301 42.0101 53.1173 42.1557 52.7791 42.4165C52.4409 42.6772 52.195 43.0394 52.0775 43.45L46.5138 62.92L39.9725 23.67C39.8966 23.2168 39.6671 22.8036 39.3224 22.4998C38.9777 22.196 38.5389 22.0201 38.0798 22.0018C37.6206 21.9834 37.1692 22.1237 36.8014 22.3991C36.4336 22.6745 36.1718 23.0681 36.06 23.5137L28.4388 54H22C21.4696 54 20.9609 54.2107 20.5858 54.5858C20.2107 54.9609 20 55.4696 20 56C20 56.5304 20.2107 57.0391 20.5858 57.4142C20.9609 57.7893 21.4696 58 22 58H30C30.446 57.9999 30.8792 57.8508 31.2307 57.5763C31.5822 57.3018 31.8318 56.9177 31.94 56.485L37.6075 33.8137L44.0275 72.3288C44.1015 72.7772 44.326 73.1871 44.6641 73.4909C45.0022 73.7947 45.4337 73.9742 45.8875 74C45.925 74 45.9625 74 46.0012 74C46.4355 73.9996 46.8578 73.858 47.2044 73.5964C47.551 73.3348 47.8031 72.9675 47.9225 72.55L54.1475 50.765L56.1025 56.6325C56.2353 57.0307 56.49 57.3771 56.8305 57.6225C57.1711 57.868 57.5802 58 58 58H64.3438C64.7104 59.0371 65.3552 59.9535 66.2075 60.6489C67.0598 61.3443 68.0868 61.792 69.1764 61.9431C70.266 62.0942 71.3762 61.9429 72.3856 61.5056C73.395 61.0684 74.2647 60.362 74.8998 59.4639C75.5348 58.5657 75.9107 57.5102 75.9864 56.4128C76.0621 55.3153 75.8346 54.2183 75.3288 53.2414C74.8231 52.2645 74.0585 51.4455 73.1187 50.8738C72.1789 50.3022 71.1 49.9999 70 50Z" fill="#0891B2"/>
</svg>
