<svg width="96" height="96" viewBox="0 0 96 96" fill="none" xmlns="http://www.w3.org/2000/svg">
<rect width="96" height="96" rx="48" fill="#D1FAE5"/>
<path fill-rule="evenodd" clip-rule="evenodd" d="M40.508 24.6279C41.7893 24.0926 43.1641 23.817 44.5527 23.817C45.9413 23.817 47.3161 24.0926 48.5974 24.6279C49.8787 25.1632 51.041 25.9474 52.0169 26.9353C52.9928 27.9231 53.7629 29.0948 54.2826 30.3825C54.8008 31.6665 55.0598 33.0403 55.0446 34.4247L55.0283 57.9977L55.0281 58.0128C54.999 59.8526 54.2478 61.6072 52.9365 62.8979C51.6252 64.1887 49.8589 64.9121 48.0189 64.9121C46.179 64.9121 44.4127 64.1887 43.1014 62.8979C41.7901 61.6072 41.0389 59.8526 41.0098 58.0128L41.0096 57.997V40C41.0096 38.8954 41.905 38 43.0096 38C44.1141 38 45.0096 38.8954 45.0096 40V57.9635C45.0256 58.7484 45.3477 59.4962 45.9074 60.0472C46.4705 60.6015 47.2289 60.9121 48.0189 60.9121C48.809 60.9121 49.5674 60.6015 50.1305 60.0472C50.6904 59.4961 51.0125 58.748 51.0283 57.9629L51.0446 34.3997L51.0447 34.3882C51.0551 33.529 50.8949 32.6764 50.5733 31.8796C50.2518 31.0828 49.7752 30.3577 49.1714 29.7465C48.5675 29.1353 47.8483 28.65 47.0555 28.3187C46.2626 27.9875 45.4119 27.817 44.5527 27.817C43.6935 27.817 42.8428 27.9875 42.0499 28.3187C41.2571 28.65 40.5379 29.1353 39.934 29.7465C39.3302 30.3577 38.8536 31.0828 38.532 31.8796C38.2105 32.6764 38.0502 33.529 38.0607 34.3882L38.0608 34.4004V58.1545L38.0606 58.1689C38.0416 59.4861 38.2845 60.7939 38.7754 62.0163C39.2662 63.2387 39.9952 64.3513 40.9199 65.2895C41.8446 66.2276 42.9466 66.9726 44.1617 67.4811C45.3769 67.9896 46.681 68.2515 47.9983 68.2515C49.3156 68.2515 50.6197 67.9896 51.8349 67.4811C53.0501 66.9726 54.1521 66.2276 55.0767 65.2895C56.0014 64.3513 56.7304 63.2387 57.2213 62.0163C57.7121 60.7939 57.9551 59.4861 57.936 58.1689L57.9358 58.1545V35.9675C57.9358 34.8629 58.8313 33.9675 59.9358 33.9675C61.0404 33.9675 61.9358 34.8629 61.9358 35.9675V58.1261C61.9605 59.9683 61.6197 61.7971 60.9332 63.5068C60.2448 65.2212 59.2224 66.7816 57.9256 68.0974C56.6287 69.4131 55.0832 70.4579 53.379 71.1711C51.6748 71.8842 49.8458 72.2515 47.9983 72.2515C46.1509 72.2515 44.3219 71.8842 42.6176 71.1711C40.9134 70.4579 39.3679 69.4131 38.0711 68.0974C36.7742 66.7816 35.7519 65.2212 35.0635 63.5068C34.3769 61.7971 34.0361 59.9682 34.0608 58.1261V34.424C34.0457 33.0398 34.3046 31.6663 34.8228 30.3825C35.3425 29.0948 36.1126 27.9231 37.0885 26.9353C38.0644 25.9474 39.2267 25.1632 40.508 24.6279Z" fill="#059669"/>
</svg>
