<svg width="25" height="24" viewBox="0 0 25 24" fill="none" xmlns="http://www.w3.org/2000/svg">
<path d="M22.2949 13.7189V21.0979H18.0169V14.2129C18.0169 12.4829 17.3979 11.3029 15.8499 11.3029C14.6679 11.3029 13.9639 12.0989 13.6549 12.8679C13.5419 13.1429 13.5129 13.5259 13.5129 13.9109V21.0979H9.23294C9.23294 21.0979 9.29094 9.43788 9.23294 8.22888H13.5129V10.0529L13.4849 10.0949H13.5129V10.0529C14.0809 9.17788 15.0959 7.92688 17.3689 7.92688C20.1839 7.92688 22.2949 9.76688 22.2949 13.7189ZM4.75694 2.02588C3.29394 2.02588 2.33594 2.98588 2.33594 4.24888C2.33594 5.48388 3.26594 6.47288 4.70094 6.47288H4.72894C6.22194 6.47288 7.14894 5.48388 7.14894 4.24888C7.12294 2.98588 6.22294 2.02588 4.75794 2.02588H4.75694ZM2.58994 21.0979H6.86794V8.22888H2.58994V21.0979Z" fill="#475569"/>
</svg>
