<svg width="24" height="24" viewBox="0 0 24 24" fill="none" xmlns="http://www.w3.org/2000/svg">
<path d="M17.82 12.523C17.8902 12.4128 17.9375 12.2896 17.9592 12.1608C17.9809 12.032 17.9766 11.9001 17.9463 11.773C17.9161 11.6458 17.8607 11.5261 17.7833 11.4208C17.706 11.3155 17.6083 11.2268 17.496 11.16L7.574 5.128C7.41265 5.03033 7.22761 4.9788 7.039 4.979C6.479 4.979 6.026 5.422 6.026 5.969V18.03C6.026 18.215 6.079 18.396 6.179 18.553C6.475 19.017 7.099 19.159 7.574 18.87L17.496 12.839C17.627 12.759 17.739 12.65 17.821 12.522L17.82 12.523ZM18.566 14.52L8.645 20.551C7.22 21.418 5.345 20.991 4.459 19.6C4.15945 19.1311 4.00019 18.5864 4 18.03V5.97C4 4.329 5.36 3 7.04 3C7.607 3 8.163 3.155 8.645 3.448L18.566 9.48C19.991 10.346 20.428 12.176 19.541 13.568C19.295 13.954 18.961 14.28 18.566 14.52Z" fill="#7C3AED"/>
</svg>
