<svg width="96" height="96" viewBox="0 0 96 96" fill="none" xmlns="http://www.w3.org/2000/svg">
<rect width="96" height="96" rx="48" fill="#EDE9FE"/>
<path d="M47.3175 32.1463L38.8425 23.6713C33.9896 25.5181 29.7946 28.7651 26.79 33H46.965C47.0639 32.9998 47.1605 32.9704 47.2426 32.9154C47.3247 32.8603 47.3886 32.7822 47.4263 32.6908C47.4641 32.5995 47.4739 32.499 47.4545 32.4021C47.4351 32.3051 47.3875 32.2161 47.3175 32.1463Z" fill="#7C3AED"/>
<path d="M36.9652 37H24.4539C22.1524 41.9058 21.4464 47.4096 22.4352 52.7375L37.3177 37.8538C37.3876 37.7839 37.4353 37.6949 37.4546 37.598C37.474 37.501 37.4642 37.4005 37.4265 37.3092C37.3888 37.2178 37.3248 37.1397 37.2427 37.0847C37.1606 37.0296 37.064 37.0002 36.9652 37Z" fill="#7C3AED"/>
<path d="M58.9999 36.965V24.445C54.0924 22.1506 48.5904 21.4478 43.2637 22.435L58.1462 37.3175C58.216 37.3874 58.305 37.4351 58.402 37.4545C58.4989 37.4738 58.5994 37.464 58.6907 37.4263C58.7821 37.3886 58.8602 37.3246 58.9153 37.2425C58.9703 37.1604 58.9998 37.0638 58.9999 36.965Z" fill="#7C3AED"/>
<path d="M73.5653 43.2625L58.6828 58.1463C58.6128 58.2161 58.5652 58.3051 58.5458 58.402C58.5265 58.499 58.5363 58.5995 58.574 58.6908C58.6117 58.7822 58.6757 58.8603 58.7578 58.9153C58.8399 58.9704 58.9364 58.9998 59.0353 59H71.5465C73.8481 54.0942 74.5541 48.5904 73.5653 43.2625Z" fill="#7C3AED"/>
<path d="M63.8537 47.3175L72.3325 38.84C70.4906 33.9798 67.2413 29.7792 63 26.775V46.965C63.0002 47.0639 63.0296 47.1604 63.0847 47.2425C63.1397 47.3247 63.2178 47.3886 63.3092 47.4263C63.4005 47.464 63.501 47.4738 63.598 47.4545C63.6949 47.4351 63.7839 47.3875 63.8537 47.3175Z" fill="#7C3AED"/>
<path d="M43.7095 58.7212C43.8957 58.9001 44.1439 58.9999 44.402 59H51.8595C51.9922 58.9999 52.1235 58.9735 52.2458 58.9222C52.3681 58.8709 52.479 58.7958 52.572 58.7012L58.7195 52.4512C58.904 52.264 59.0072 52.0116 59.007 51.7487L58.9995 44.1475C58.9995 44.0152 58.9732 43.8841 58.9221 43.762C58.871 43.64 58.7962 43.5292 58.702 43.4362L52.452 37.28C52.2644 37.0953 52.0116 36.9919 51.7483 36.9925L44.1433 37C44.0109 37.0001 43.8799 37.0264 43.7578 37.0774C43.6357 37.1285 43.525 37.2033 43.432 37.2975L37.2758 43.5475C37.091 43.7351 36.9877 43.988 36.9883 44.2512L36.9958 51.8487C36.9958 51.9832 37.0229 52.1162 37.0756 52.2399C37.1282 52.3636 37.2052 52.4755 37.302 52.5687L43.7095 58.7212Z" fill="#7C3AED"/>
<path d="M48.6828 63.8537L57.1578 72.3288C62.0108 70.4819 66.2057 67.235 69.2103 63H49.0353C48.9364 63.0002 48.8399 63.0296 48.7578 63.0847C48.6757 63.1397 48.6117 63.2178 48.574 63.3092C48.5363 63.4005 48.5265 63.501 48.5458 63.598C48.5652 63.6949 48.6128 63.7839 48.6828 63.8537Z" fill="#7C3AED"/>
<path d="M37 59.035V71.555C41.9075 73.8495 47.4096 74.5523 52.7363 73.565L37.8538 58.6825C37.7839 58.6126 37.6949 58.5649 37.598 58.5456C37.501 58.5262 37.4005 58.536 37.3092 58.5737C37.2178 58.6115 37.1397 58.6754 37.0847 58.7575C37.0296 58.8396 37.0002 58.9362 37 59.035Z" fill="#7C3AED"/>
<path d="M32.1467 48.6825L23.668 57.1613C25.5103 62.0209 28.7595 66.221 33.0005 69.225V49.035C33.0003 48.9362 32.9708 48.8396 32.9158 48.7575C32.8608 48.6754 32.7826 48.6115 32.6913 48.5737C32.5999 48.536 32.4994 48.5262 32.4025 48.5456C32.3056 48.5649 32.2166 48.6126 32.1467 48.6825Z" fill="#7C3AED"/>
</svg>
