<svg width="88" height="35" viewBox="0 0 88 35" fill="none" xmlns="http://www.w3.org/2000/svg">
<path d="M6.57812 23.625L10.0938 11.0938H12.9531L12.0312 16.0156L8.51562 28H6.125L6.57812 23.625ZM4.79688 11.0938L7.3125 23.6094L7.54688 28H4.73438L0.453125 11.0938H4.79688ZM16.1719 23.4062L18.625 11.0938H22.9844L18.7031 28H15.9062L16.1719 23.4062ZM13.3438 11.0938L16.8438 23.5312L17.3281 28H14.9219L11.4062 16.0312L10.5156 11.0938H13.3438ZM76.0625 14.3438V34.5H71.5625V11.0938H75.7344L76.0625 14.3438ZM86.7656 19.3594V19.6875C86.7656 20.9167 86.6198 22.0573 86.3281 23.1094C86.0469 24.1615 85.6302 25.0781 85.0781 25.8594C84.526 26.6302 83.8385 27.2344 83.0156 27.6719C82.2031 28.099 81.2656 28.3125 80.2031 28.3125C79.1719 28.3125 78.276 28.1042 77.5156 27.6875C76.7552 27.2708 76.1146 26.6875 75.5938 25.9375C75.0833 25.1771 74.6719 24.2969 74.3594 23.2969C74.0469 22.2969 73.8073 21.224 73.6406 20.0781V19.2188C73.8073 17.9896 74.0469 16.8646 74.3594 15.8438C74.6719 14.8125 75.0833 13.9219 75.5938 13.1719C76.1146 12.4115 76.75 11.8229 77.5 11.4062C78.2604 10.9896 79.151 10.7812 80.1719 10.7812C81.2448 10.7812 82.1875 10.9844 83 11.3906C83.8229 11.7969 84.5104 12.3802 85.0625 13.1406C85.625 13.901 86.0469 14.8073 86.3281 15.8594C86.6198 16.9115 86.7656 18.0781 86.7656 19.3594ZM82.25 19.6875V19.3594C82.25 18.6406 82.1875 17.9792 82.0625 17.375C81.9479 16.7604 81.7604 16.224 81.5 15.7656C81.25 15.3073 80.9167 14.9531 80.5 14.7031C80.0938 14.4427 79.599 14.3125 79.0156 14.3125C78.401 14.3125 77.875 14.4115 77.4375 14.6094C77.0104 14.8073 76.6615 15.0938 76.3906 15.4688C76.1198 15.8438 75.9167 16.2917 75.7812 16.8125C75.6458 17.3333 75.5625 17.9219 75.5312 18.5781V20.75C75.5833 21.5208 75.7292 22.2135 75.9688 22.8281C76.2083 23.4323 76.5781 23.9115 77.0781 24.2656C77.5781 24.6198 78.2344 24.7969 79.0469 24.7969C79.6406 24.7969 80.1406 24.6667 80.5469 24.4062C80.9531 24.1354 81.2812 23.7656 81.5312 23.2969C81.7917 22.8281 81.974 22.2865 82.0781 21.6719C82.1927 21.0573 82.25 20.3958 82.25 19.6875Z" fill="#4C1D95"/>
<path d="M29.75 14.7812V28H25.25V11.0938H29.4844L29.75 14.7812ZM34.8438 10.9844L34.7656 15.1562C34.5469 15.125 34.2812 15.099 33.9688 15.0781C33.6667 15.0469 33.3906 15.0312 33.1406 15.0312C32.5052 15.0312 31.9531 15.1146 31.4844 15.2812C31.026 15.4375 30.6406 15.6719 30.3281 15.9844C30.026 16.2969 29.7969 16.6771 29.6406 17.125C29.4948 17.5729 29.4115 18.0833 29.3906 18.6562L28.4844 18.375C28.4844 17.2812 28.5938 16.276 28.8125 15.3594C29.0312 14.4323 29.349 13.625 29.7656 12.9375C30.1927 12.25 30.7135 11.7188 31.3281 11.3438C31.9427 10.9688 32.6458 10.7812 33.4375 10.7812C33.6875 10.7812 33.9427 10.8021 34.2031 10.8438C34.4635 10.875 34.6771 10.9219 34.8438 10.9844ZM45.5625 24.1875V16.6562C45.5625 16.1146 45.474 15.651 45.2969 15.2656C45.1198 14.8698 44.8438 14.5625 44.4688 14.3438C44.1042 14.125 43.6302 14.0156 43.0469 14.0156C42.5469 14.0156 42.1146 14.1042 41.75 14.2812C41.3854 14.4479 41.1042 14.6927 40.9062 15.0156C40.7083 15.3281 40.6094 15.6979 40.6094 16.125H36.1094C36.1094 15.4062 36.276 14.724 36.6094 14.0781C36.9427 13.4323 37.4271 12.8646 38.0625 12.375C38.6979 11.875 39.4531 11.4844 40.3281 11.2031C41.2135 10.9219 42.2031 10.7812 43.2969 10.7812C44.6094 10.7812 45.776 11 46.7969 11.4375C47.8177 11.875 48.6198 12.5312 49.2031 13.4062C49.7969 14.2812 50.0938 15.375 50.0938 16.6875V23.9219C50.0938 24.849 50.151 25.6094 50.2656 26.2031C50.3802 26.7865 50.5469 27.2969 50.7656 27.7344V28H46.2188C46 27.5417 45.8333 26.9688 45.7188 26.2812C45.6146 25.5833 45.5625 24.8854 45.5625 24.1875ZM46.1562 17.7031L46.1875 20.25H43.6719C43.0781 20.25 42.5625 20.3177 42.125 20.4531C41.6875 20.5885 41.3281 20.7812 41.0469 21.0312C40.7656 21.2708 40.5573 21.5521 40.4219 21.875C40.2969 22.1979 40.2344 22.5521 40.2344 22.9375C40.2344 23.3229 40.3229 23.6719 40.5 23.9844C40.6771 24.2865 40.9323 24.526 41.2656 24.7031C41.599 24.8698 41.9896 24.9531 42.4375 24.9531C43.1146 24.9531 43.7031 24.8177 44.2031 24.5469C44.7031 24.276 45.0885 23.9427 45.3594 23.5469C45.6406 23.151 45.7865 22.776 45.7969 22.4219L46.9844 24.3281C46.8177 24.7552 46.5885 25.1979 46.2969 25.6562C46.0156 26.1146 45.6562 26.5469 45.2188 26.9531C44.7812 27.349 44.2552 27.6771 43.6406 27.9375C43.026 28.1875 42.2969 28.3125 41.4531 28.3125C40.3802 28.3125 39.4062 28.099 38.5312 27.6719C37.6667 27.2344 36.9792 26.6354 36.4688 25.875C35.9688 25.1042 35.7188 24.2292 35.7188 23.25C35.7188 22.3646 35.8854 21.5781 36.2188 20.8906C36.5521 20.2031 37.0417 19.625 37.6875 19.1562C38.3438 18.6771 39.1615 18.3177 40.1406 18.0781C41.1198 17.8281 42.2552 17.7031 43.5469 17.7031H46.1562ZM58.0625 14.3438V34.5H53.5625V11.0938H57.7344L58.0625 14.3438ZM68.7656 19.3594V19.6875C68.7656 20.9167 68.6198 22.0573 68.3281 23.1094C68.0469 24.1615 67.6302 25.0781 67.0781 25.8594C66.526 26.6302 65.8385 27.2344 65.0156 27.6719C64.2031 28.099 63.2656 28.3125 62.2031 28.3125C61.1719 28.3125 60.276 28.1042 59.5156 27.6875C58.7552 27.2708 58.1146 26.6875 57.5938 25.9375C57.0833 25.1771 56.6719 24.2969 56.3594 23.2969C56.0469 22.2969 55.8073 21.224 55.6406 20.0781V19.2188C55.8073 17.9896 56.0469 16.8646 56.3594 15.8438C56.6719 14.8125 57.0833 13.9219 57.5938 13.1719C58.1146 12.4115 58.75 11.8229 59.5 11.4062C60.2604 10.9896 61.151 10.7812 62.1719 10.7812C63.2448 10.7812 64.1875 10.9844 65 11.3906C65.8229 11.7969 66.5104 12.3802 67.0625 13.1406C67.625 13.901 68.0469 14.8073 68.3281 15.8594C68.6198 16.9115 68.7656 18.0781 68.7656 19.3594ZM64.25 19.6875V19.3594C64.25 18.6406 64.1875 17.9792 64.0625 17.375C63.9479 16.7604 63.7604 16.224 63.5 15.7656C63.25 15.3073 62.9167 14.9531 62.5 14.7031C62.0938 14.4427 61.599 14.3125 61.0156 14.3125C60.401 14.3125 59.875 14.4115 59.4375 14.6094C59.0104 14.8073 58.6615 15.0938 58.3906 15.4688C58.1198 15.8438 57.9167 16.2917 57.7812 16.8125C57.6458 17.3333 57.5625 17.9219 57.5312 18.5781V20.75C57.5833 21.5208 57.7292 22.2135 57.9688 22.8281C58.2083 23.4323 58.5781 23.9115 59.0781 24.2656C59.5781 24.6198 60.2344 24.7969 61.0469 24.7969C61.6406 24.7969 62.1406 24.6667 62.5469 24.4062C62.9531 24.1354 63.2812 23.7656 63.5312 23.2969C63.7917 22.8281 63.974 22.2865 64.0781 21.6719C64.1927 21.0573 64.25 20.3958 64.25 19.6875Z" fill="#7C3AED"/>
</svg>
